<svg xmlns="http://www.w3.org/2000/svg" id="Layer_1" viewBox="0 0 1080 574"><defs><style>.cls-1{fill:#2398c5}</style></defs><path d="M55.06 468.5H41.38v-27.94H15.74v27.94H2v-64.73h13.74v25.37h25.64v-25.37h13.68ZM71.39 468.5v-64.73h13.73v64.73ZM128.9 414.26q-7.74 0-12 5.83t-4.25 16.22q0 21.65 16.24 21.65 6.82 0 16.52-3.41v11.51a45.79 45.79 0 0 1-17.8 3.32q-14.13 0-21.61-8.56t-7.48-24.6a40.12 40.12 0 0 1 3.68-17.68 26.58 26.58 0 0 1 10.56-11.65 31.21 31.21 0 0 1 16.13-4.05 43.53 43.53 0 0 1 18.95 4.56l-4.42 11.16a73.14 73.14 0 0 0-7.31-3 21.73 21.73 0 0 0-7.21-1.3ZM207.31 432.15H233v33.56a71.38 71.38 0 0 1-11.76 2.85 76 76 0 0 1-11.26.82q-14.65 0-22.38-8.61t-7.73-24.72q0-15.68 9-24.44t24.86-8.77a48 48 0 0 1 19.21 4l-4.56 11a32.46 32.46 0 0 0-14.74-3.55q-8.91 0-14.26 6T194 436.31q0 10.54 4.32 16.1t12.53 5.59a44.4 44.4 0 0 0 8.72-.88v-13.55h-12.26ZM248.39 468.5v-64.73h13.73v53.39h26.25v11.34ZM358.37 436.05q0 16.06-8 24.7t-22.85 8.63q-14.87 0-22.84-8.63t-8-24.79q0-16.17 8-24.68t22.91-8.53q14.92 0 22.82 8.59t7.96 24.71Zm-47.24 0q0 10.84 4.12 16.33t12.3 5.49q16.43 0 16.43-21.82t-16.34-21.87q-8.19 0-12.35 5.51t-4.16 16.36ZM371.78 403.77h20.15q13.76 0 20 3.92t6.22 12.46a15.67 15.67 0 0 1-2.72 9.52 10.86 10.86 0 0 1-7.24 4.47v.45c4.11.91 7.06 2.62 8.88 5.13s2.72 5.84 2.72 10q0 8.85-6.4 13.81t-17.37 5h-24.24Zm13.73 25.64h8c3.72 0 6.42-.58 8.08-1.73s2.51-3.06 2.51-5.71a5.72 5.72 0 0 0-2.73-5.34q-2.71-1.61-8.61-1.61h-7.21Zm0 10.89v16.86h8.94q5.67 0 8.37-2.16c1.8-1.45 2.7-3.66 2.7-6.65q0-8.06-11.51-8.05ZM472.32 468.5l-4.69-15.41H444l-4.69 15.41h-14.76l22.85-65h16.78l22.93 65Zm-8-26.92q-6.5-20.94-7.32-23.69c-.55-1.82-.94-3.27-1.18-4.33q-1.46 5.65-8.36 28ZM495.26 468.5v-64.73H509v53.39h26.26v11.34ZM608.24 450.52q0 8.78-6.31 13.82t-17.55 5a41.31 41.31 0 0 1-18.33-3.89v-12.71a75.38 75.38 0 0 0 11.09 4.11 32.65 32.65 0 0 0 8.3 1.2q4.51 0 6.93-1.73a5.89 5.89 0 0 0 2.41-5.13 5.67 5.67 0 0 0-1.06-3.39 12 12 0 0 0-3.12-2.86 81.89 81.89 0 0 0-8.39-4.38 39.83 39.83 0 0 1-8.9-5.35 20.22 20.22 0 0 1-4.74-6 17.06 17.06 0 0 1-1.77-8q0-8.6 5.82-13.5t16.1-4.92a37.93 37.93 0 0 1 9.63 1.2 66.41 66.41 0 0 1 9.58 3.36l-4.43 10.67a65.68 65.68 0 0 0-8.56-3 27.66 27.66 0 0 0-6.67-.85 8.81 8.81 0 0 0-6 1.82 6 6 0 0 0-2.08 4.74 5.85 5.85 0 0 0 .84 3.16 9.17 9.17 0 0 0 2.68 2.61 79.15 79.15 0 0 0 8.7 4.54q9.06 4.33 12.44 8.7a17 17 0 0 1 3.39 10.78ZM678.72 436.05q0 16.06-8 24.7t-22.84 8.63q-14.88 0-22.85-8.63t-8-24.79q0-16.17 8-24.68t22.97-8.53q14.91 0 22.82 8.59t7.9 24.71Zm-47.24 0q0 10.84 4.12 16.33t12.31 5.49q16.43 0 16.42-21.82T648 414.18q-8.19 0-12.36 5.51t-4.16 16.36ZM692.14 468.5v-64.73h13.72v53.39h26.25v11.34ZM796 403.77v41.88a24.17 24.17 0 0 1-3.21 12.58 20.91 20.91 0 0 1-9.27 8.28 33.29 33.29 0 0 1-14.34 2.87q-12.5 0-19.4-6.39t-6.9-17.51v-41.71h13.72v39.63q0 7.47 3 11t10 3.49q6.72 0 9.76-3.52c2-2.34 3-6 3-11v-39.6ZM836.86 468.5h-13.72v-53.31h-17.58v-11.42h48.88v11.42h-17.58ZM864.4 468.5v-64.73h13.72v64.73ZM953.17 436.05q0 16.06-8 24.7t-22.85 8.63q-14.86 0-22.84-8.63t-8-24.79q0-16.17 8-24.68t22.91-8.53q14.92 0 22.82 8.59t7.96 24.71Zm-47.24 0q0 10.84 4.11 16.33t12.31 5.49q16.42 0 16.43-21.82t-16.34-21.87q-8.19 0-12.35 5.51t-4.16 16.36ZM1024 468.5h-17.44l-28.16-49h-.4q.84 13 .84 18.51v30.49h-12.26v-64.73h17.31l28.11 48.48h.31q-.66-12.62-.66-17.84v-30.64H1024ZM1078.5 450.52q0 8.78-6.31 13.82t-17.55 5a41.31 41.31 0 0 1-18.33-3.89v-12.71a75.38 75.38 0 0 0 11.09 4.11 32.65 32.65 0 0 0 8.3 1.2q4.52 0 6.93-1.73a5.89 5.89 0 0 0 2.41-5.13 5.67 5.67 0 0 0-1.06-3.39 12 12 0 0 0-3.12-2.86 81.89 81.89 0 0 0-8.39-4.38 39.83 39.83 0 0 1-8.9-5.35 20.22 20.22 0 0 1-4.74-6 17.06 17.06 0 0 1-1.77-8q0-8.6 5.82-13.5t16.1-4.92a37.93 37.93 0 0 1 9.63 1.2 66 66 0 0 1 9.58 3.36l-4.43 10.67a65.68 65.68 0 0 0-8.56-3 27.66 27.66 0 0 0-6.67-.85 8.81 8.81 0 0 0-6 1.82 6 6 0 0 0-2.08 4.74 5.85 5.85 0 0 0 .84 3.16 9.17 9.17 0 0 0 2.68 2.61 79.15 79.15 0 0 0 8.7 4.54q9.08 4.33 12.44 8.7a17 17 0 0 1 3.39 10.78Z" class="cls-1"/><path d="M83.73 523.45 96 499.83h9.21l-17.25 31.7v20.08h-8.5v-19.8l-17.18-32h9.21ZM145.89 532q0 9.6-4.93 15t-13.7 5.39a18.83 18.83 0 0 1-9.71-2.48 16.36 16.36 0 0 1-6.48-7.12A24.25 24.25 0 0 1 108.8 532q0-9.53 4.89-14.87t13.78-5.35q8.5 0 13.46 5.47t4.96 14.75Zm-28.52 0q0 13.57 10 13.57t9.95-13.57q0-13.43-10-13.42-5.25 0-7.6 3.47t-2.35 9.95ZM183.07 551.61l-1.16-5.14h-.43a11.81 11.81 0 0 1-4.94 4.29 16.5 16.5 0 0 1-7.31 1.56q-7.12 0-10.63-3.54T155.09 538v-25.6h8.4v24.15q0 4.5 1.84 6.75t5.77 2.25q5.25 0 7.71-3.14c1.64-2.08 2.46-5.59 2.46-10.5v-19.47h8.36v39.17ZM221.36 511.73a20.58 20.58 0 0 1 4.15.35l-.82 7.76a15.91 15.91 0 0 0-3.68-.42 10.68 10.68 0 0 0-8.1 3.25 11.82 11.82 0 0 0-3.09 8.47v20.47h-8.33v-39.17H208l1.1 6.9h.42a15.59 15.59 0 0 1 5.08-5.56 12.08 12.08 0 0 1 6.76-2.05ZM274.52 506.35q-7.29 0-11.47 5.17t-4.18 14.27q0 9.53 4 14.42t11.63 4.88a30.35 30.35 0 0 0 6.38-.65q3.08-.66 6.41-1.68V550a39 39 0 0 1-13.81 2.3q-11.37 0-17.46-6.89t-6.1-19.71a31.88 31.88 0 0 1 3-14.13 21.09 21.09 0 0 1 8.55-9.28 25.9 25.9 0 0 1 13.14-3.22 32.64 32.64 0 0 1 14.67 3.33l-3.05 7a47.29 47.29 0 0 0-5.54-2.18 20.18 20.18 0 0 0-6.17-.87ZM306.93 530.93v20.68h-8.46v-51.78h14.62q10 0 14.84 3.75c3.21 2.51 4.82 6.28 4.82 11.34q0 9.66-10.06 13.78l14.63 22.91h-9.63l-12.4-20.68Zm0-7h5.88q5.91 0 8.57-2.19t2.62-6.54q0-4.4-2.87-6.3t-8.6-1.9h-5.6ZM367.21 551.61l-15-43.25h-.29q.6 9.64.6 18.07v25.18h-7.68v-51.78h11.93L371.14 541h.22l14.8-41.19h12v51.78H390V526q0-3.86.19-10.06t.34-7.5h-.29l-15.54 43.17ZM460.47 537.55a13 13 0 0 1-5 10.84q-5 3.93-13.77 3.93t-14.38-2.73v-8a39.3 39.3 0 0 0 7.52 2.62 31.78 31.78 0 0 0 7.42.95c3.36 0 5.83-.63 7.42-1.91a6.21 6.21 0 0 0 2.39-5.13 6.46 6.46 0 0 0-2.19-4.93q-2.2-2-9.07-4.78-7.08-2.86-10-6.55a13.92 13.92 0 0 1-2.9-8.86 12.4 12.4 0 0 1 4.6-10.2q4.61-3.72 12.36-3.71a36.36 36.36 0 0 1 14.81 3.25l-2.68 6.91a32.31 32.31 0 0 0-12.33-2.9q-4.11 0-6.23 1.78a5.88 5.88 0 0 0-2.13 4.73 6.75 6.75 0 0 0 .85 3.46A8.78 8.78 0 0 0 440 519a47.45 47.45 0 0 0 7 3.36 38.28 38.28 0 0 1 8.36 4.43 13 13 0 0 1 3.9 4.64 14 14 0 0 1 1.21 6.12ZM497.23 551.61l-1.17-5.14h-.42a11.87 11.87 0 0 1-4.94 4.29 16.54 16.54 0 0 1-7.32 1.56q-7.11 0-10.62-3.54T469.25 538v-25.6h8.4v24.15q0 4.5 1.84 6.75c1.22 1.5 3.15 2.25 5.77 2.25q5.24 0 7.7-3.14c1.64-2.08 2.47-5.59 2.47-10.5v-19.47h8.35v39.17ZM531.45 552.32q-8.9 0-13.52-5.19t-4.62-14.89q0-9.88 4.84-15.2t14-5.31a26.29 26.29 0 0 1 11.16 2.3l-2.52 6.7a25.22 25.22 0 0 0-8.71-2.06q-10.17 0-10.17 13.5 0 6.58 2.53 9.9a8.8 8.8 0 0 0 7.42 3.31 21.19 21.19 0 0 0 10.52-2.77v7.26a16.2 16.2 0 0 1-4.76 1.88 28.44 28.44 0 0 1-6.17.57ZM567.36 552.32q-8.9 0-13.51-5.19t-4.62-14.89q0-9.88 4.83-15.2t14-5.31a26.29 26.29 0 0 1 11.16 2.3l-2.52 6.7a25.17 25.17 0 0 0-8.71-2.06q-10.17 0-10.16 13.5 0 6.58 2.53 9.9a8.79 8.79 0 0 0 7.42 3.31 21.22 21.22 0 0 0 10.52-2.77v7.26a16.37 16.37 0 0 1-4.77 1.88 28.31 28.31 0 0 1-6.17.57ZM604.58 552.32q-9.14 0-14.29-5.33t-5.15-14.68q0-9.6 4.78-15.09t13.14-5.49q7.76 0 12.25 4.71t4.5 13v4.5h-26.1c.12 3.8 1.14 6.73 3.08 8.77s4.66 3.06 8.18 3.06a30.71 30.71 0 0 0 6.47-.65 34.56 34.56 0 0 0 6.42-2.18v6.76a25.37 25.37 0 0 1-6.16 2.06 37.93 37.93 0 0 1-7.12.56ZM603.06 518a8.36 8.36 0 0 0-6.36 2.52q-2.38 2.52-2.85 7.33h17.78q-.07-4.85-2.34-7.35a8 8 0 0 0-6.23-2.5ZM655.58 540.45a10.25 10.25 0 0 1-4.17 8.8q-4.18 3.07-12 3.07c-5.21 0-9.41-.79-12.57-2.37v-7.19a30.92 30.92 0 0 0 12.86 3.18q7.68 0 7.68-4.64a3.68 3.68 0 0 0-.85-2.48 10 10 0 0 0-2.8-2.05 47.67 47.67 0 0 0-5.41-2.41q-6.76-2.61-9.16-5.24a9.71 9.71 0 0 1-2.39-6.8 8.92 8.92 0 0 1 4.06-7.81q4-2.78 11-2.78a31.2 31.2 0 0 1 13.07 2.8l-2.69 6.27a29 29 0 0 0-10.67-2.62q-6.58 0-6.58 3.75a3.78 3.78 0 0 0 1.71 3.12 37.7 37.7 0 0 0 7.5 3.5 34.51 34.51 0 0 1 7 3.44 9.51 9.51 0 0 1 4.32 8.46ZM690.9 540.45a10.25 10.25 0 0 1-4.18 8.8q-4.19 3.07-12 3.07T662.17 550v-7.19a31 31 0 0 0 12.83 3.13q7.68 0 7.69-4.64a3.69 3.69 0 0 0-.86-2.48 10.09 10.09 0 0 0-2.79-2.05 48.79 48.79 0 0 0-5.42-2.41q-6.76-2.61-9.16-5.24a9.71 9.71 0 0 1-2.39-6.8 8.92 8.92 0 0 1 4.06-7.81q4.05-2.78 11-2.78a31.2 31.2 0 0 1 13.07 2.8l-2.69 6.27a29 29 0 0 0-10.66-2.62c-4.4 0-6.59 1.25-6.59 3.75a3.77 3.77 0 0 0 1.72 3.12 37.23 37.23 0 0 0 7.49 3.5 34.92 34.92 0 0 1 7.05 3.44 10.26 10.26 0 0 1 3.25 3.59 10.39 10.39 0 0 1 1.13 4.87ZM753.9 515.48q0 8.12-5.31 12.44t-15.12 4.32h-5.38v19.37h-8.47v-51.78h14.91q9.71 0 14.54 4t4.83 11.65Zm-25.81 9.64h4.49q6.52 0 9.57-2.27t3-7.08q0-4.47-2.73-6.66c-1.81-1.46-4.65-2.2-8.5-2.2h-5.87ZM787.87 551.61l-1.66-5.45h-.29a16.21 16.21 0 0 1-5.7 4.87 18.07 18.07 0 0 1-7.37 1.29q-5.77 0-9-3.12t-3.24-8.82q0-6.06 4.5-9.13t13.7-3.37l6.77-.21v-2.09c0-2.5-.59-4.38-1.75-5.62s-3-1.85-5.44-1.85a18.76 18.76 0 0 0-5.77.88 43.55 43.55 0 0 0-5.32 2.09l-2.69-6a29.06 29.06 0 0 1 7-2.53 32 32 0 0 1 7.15-.87c5 0 8.75 1.09 11.28 3.26s3.81 5.58 3.81 10.23v26.39Zm-12.4-5.67a10.29 10.29 0 0 0 7.28-2.53 9.18 9.18 0 0 0 2.75-7.1v-3.4l-5 .21q-5.88.21-8.55 2a6 6 0 0 0-2.68 5.36 5.24 5.24 0 0 0 1.56 4.06 6.68 6.68 0 0 0 4.64 1.4ZM825.31 511.73a20.54 20.54 0 0 1 4.14.35l-.81 7.76a16 16 0 0 0-3.69-.42 10.66 10.66 0 0 0-8.09 3.25 11.79 11.79 0 0 0-3.1 8.47v20.47h-8.32v-39.17H812l1.1 6.9h.43a15.59 15.59 0 0 1 5.08-5.56 12.08 12.08 0 0 1 6.7-2.05ZM851.3 545.59a20.22 20.22 0 0 0 6.1-1v6.27a16.82 16.82 0 0 1-3.56 1 24.75 24.75 0 0 1-4.52.41q-11.84 0-11.83-12.47v-21.06h-5.35v-3.68l5.74-3 2.83-8.28h5.14v8.71H857v6.3h-11.15v21a5.83 5.83 0 0 0 1.51 4.44 5.45 5.45 0 0 0 3.94 1.36ZM899.68 551.61h-8.35v-24.08c0-3-.61-5.28-1.83-6.77s-3.14-2.23-5.79-2.23q-5.28 0-7.72 3.12t-2.44 10.45v19.51h-8.33v-39.17h6.52l1.17 5.13h.42a11.66 11.66 0 0 1 5-4.32 17 17 0 0 1 7.23-1.52q14.1 0 14.09 14.34ZM928.37 552.32q-9.14 0-14.29-5.33t-5.15-14.68q0-9.6 4.78-15.09t13.14-5.49q7.75 0 12.25 4.71t4.5 13v4.5h-26.1c.12 3.8 1.15 6.73 3.08 8.77s4.66 3.06 8.18 3.06a30.71 30.71 0 0 0 6.47-.65 34.56 34.56 0 0 0 6.42-2.18v6.76a25.37 25.37 0 0 1-6.16 2.06 37.93 37.93 0 0 1-7.12.56ZM926.85 518a8.37 8.37 0 0 0-6.36 2.52q-2.38 2.52-2.85 7.33h17.78q-.07-4.85-2.34-7.35a8 8 0 0 0-6.23-2.5ZM972.93 511.73a20.47 20.47 0 0 1 4.14.35l-.81 7.76a15.93 15.93 0 0 0-3.69-.42 10.67 10.67 0 0 0-8.09 3.25 11.83 11.83 0 0 0-3.1 8.47v20.47h-8.32v-39.17h6.52l1.09 6.9h.43a15.59 15.59 0 0 1 5.08-5.56 12.08 12.08 0 0 1 6.75-2.05ZM1010.65 540.45a10.23 10.23 0 0 1-4.18 8.8q-4.19 3.07-12 3.07T981.92 550v-7.19a31 31 0 0 0 12.86 3.18q7.68 0 7.69-4.64a3.73 3.73 0 0 0-.85-2.48 10.16 10.16 0 0 0-2.8-2.05 48.79 48.79 0 0 0-5.42-2.41q-6.76-2.61-9.16-5.24a9.71 9.71 0 0 1-2.39-6.8 8.94 8.94 0 0 1 4.06-7.81q4.05-2.78 11-2.78a31.17 31.17 0 0 1 13.07 2.8l-2.69 6.27a29 29 0 0 0-10.66-2.62q-6.58 0-6.59 3.75a3.77 3.77 0 0 0 1.72 3.12 37.23 37.23 0 0 0 7.49 3.5 34.92 34.92 0 0 1 7.05 3.44 10.39 10.39 0 0 1 3.26 3.59 10.51 10.51 0 0 1 1.09 4.82Z"/><path d="M255.23 352.7s-52.48-59.7-21.1-128.61c0 0 19-68.42 98.78-68.93 0 0-1-62.76 81.28-95.69 0 0 57.61-20.06 114.2 22.64 0 0 11.32 8.74 14.41 15.43 0 0 39.09-42.18 85.39-40.12 0 0 66.88-7.21 114.21 50.41 0 0 30.87 40.13 25.21 72.54 0 0 76.13 7.71 92.08 69.45a98.19 98.19 0 0 1 0 40.12s21.61-22.63 22.64-54c0 0 12.95-82-97.77-105.81-.23-.05 11.1 3.26 11.09 3-1-33.3-35.54-85.11-93.38-113.29 0 0-106.49-46.3-166.68 29.84 0 0-54.53-63.9-125.52-43.78 0 0-75.9 6.72-101.74 107.11a.6.6 0 0 1-.58.46c-6.05.11-70.07 2.7-101.91 63.86 0 0-24.69 47.26-5.14 105.9 0 .02 26.23 56.23 54.53 69.47Z" class="cls-1"/><path d="M70.14 566.94h935.68v6.56H70.14z"/></svg>